# xmcd
#
# Track frame offsets: 
#        150
#        21119
#        38665
#        53535
#        68200
#        82571
#        97122
#        111090
#        127254
#        143561
#
# Disc length: 2130 seconds
#
# Revision: 0
# Processed by: cddbd v1.5.2PL0 Copyright (c) Steve Scherf et al.
# Submitted via: ExactAudioCopyFreeDBPlugin 1.0
#
DISCID=7a08500a
DTITLE=Jole - Sve su žene lijepe
DYEAR=2001
DGENRE=Death Metal
TTITLE0=Čudna klima
TTITLE1=Mravi
TTITLE2=Mjesečina
TTITLE3=Gdje bi htjela
TTITLE4=Nisi me voljela
TTITLE5=Sve su žene lijepe
TTITLE6=Stani da te pitam
TTITLE7=Idu seke
TTITLE8=Sporedan lik
TTITLE9=Plemenita roda
EXTD=
EXTT0=
EXTT1=
EXTT2=
EXTT3=
EXTT4=
EXTT5=
EXTT6=
EXTT7=
EXTT8=
EXTT9=
PLAYORDER=
